{"title":"My Sister's Hot Friend","uid":7353356,"size":443807679,"categoryP":"porn","categoryS":"movies","magnet":"?xt=urn:btih:1b89e1e5aecfe96e3288c76f983084bcfed39392&amp;dn=My+Sister%27s+Hot+Friend&amp;tr=udp%3A%2F%2Ftracker.openbittorrent.com%3A80&amp;tr=udp%3A%2F%2Fopen.demonii.com%3A1337&amp;tr=udp%3A%2F%2Ftracker.coppersurfer.tk%3A6969&amp;tr=udp%3A%2F%2Fexodus.desync.com%3A6969","seeders":0,"leechers":1,"uploader":"soulless123","files":1,"time":1339681629,"description":"Screen\n &lt;a href=&quot;\nhttp://bayimg.com/MapDmaaDC&quot; rel=&quot;nofollow&quot; target=&quot;_NEW&quot;&gt;\nhttp://bayimg.com/MapDmaaDC&lt;/a&gt;\n\n\nSeeding Time 24/7\n\nDon't Forget To Say Thanks If You Like My Post\n\n\n\n-=Media Info=-\n\n\nFormat : Windows Media\nFile size : 423 MiB\nDuration : 28mn 32s\nOverall bit rate mode : Constant\nOverall bit rate : 2 074 Kbps\nMaximum Overall bit rate : 2 087 Kbps\nEncoded date : UTC 2007-06-19 01:29:03.453\n\nVideo\nID : 2\nFormat : VC-1\nFormat profile : MP@HL\nCodec ID : WMV3\nCodec ID/Info : Windows Media Video 9\nCodec ID/Hint : WMV3\nDescription of the codec : Windows Media Video 9 - Professional\nDuration : 28mn 32s\nBit rate mode : Constant\nBit rate : 2 048 Kbps\nWidth : 720 pixels\nHeight : 540 pixels\nDisplay aspect ratio : 4:3\nFrame rate : 29.970 fps\nBit depth : 8 bits\nScan type : Progressive\nCompression mode : Lossy\nBits/(Pixel*Frame) : 0.176\nStream size : 418 MiB (99%)\nLanguage : English (US)\n\nAudio\nID : 1\nFormat : WMA\nFormat version : Version 2\nCodec ID : 161\nCodec ID/Info : Windows Media Audio\nDescription of the codec : Windows Media Audio 9.2 - 20 kbps, 32 kHz, mono (A/V) 2-pass CBR\nDuration : 28mn 32s\nBit rate mode : Constant\nBit rate : 20.0 Kbps\nChannel(s) : 1 channel\nSampling rate : 32.0 KHz\nBit depth : 16 bits\nStream size : 4.08 MiB (1%)\nLanguage : English (US)\n","torrent":{"xt":"urn:btih:1b89e1e5aecfe96e3288c76f983084bcfed39392","amp;dn":"My+Sister%27s+Hot+Friend","amp;tr":["udp%3A%2F%2Ftracker.openbittorrent.com%3A80","udp%3A%2F%2Fopen.demonii.com%3A1337","udp%3A%2F%2Ftracker.coppersurfer.tk%3A6969","udp%3A%2F%2Fexodus.desync.com%3A6969"],"infoHash":"1b89e1e5aecfe96e3288c76f983084bcfed39392","infoHashBuffer":{"type":"Buffer","data":[27,137,225,229,174,207,233,110,50,136,199,111,152,48,132,188,254,211,147,146]},"announce":[],"urlList":[]}}